<svg id="Capa_1" enable-background="new 0 0 512 512" height="512" viewBox="0 0 512 512" width="512" xmlns="http://www.w3.org/2000/svg"><g><g fill="#dae4ea"><path d="m98.269 74.445h-6.834c-6.693 0-12.119-5.426-12.119-12.119v-42.707c0-6.693 5.426-12.119 12.119-12.119h6.834c6.693 0 12.119 5.426 12.119 12.119v42.706c0 6.694-5.426 12.12-12.119 12.12z"/><path d="m178.843 74.445h-6.834c-6.693 0-12.119-5.426-12.119-12.119v-42.707c0-6.693 5.426-12.119 12.119-12.119h6.834c6.693 0 12.119 5.426 12.119 12.119v42.706c0 6.694-5.426 12.12-12.119 12.12z"/><path d="m259.417 74.445h-6.834c-6.693 0-12.119-5.426-12.119-12.119v-42.707c0-6.693 5.426-12.119 12.119-12.119h6.834c6.693 0 12.119 5.426 12.119 12.119v42.706c0 6.694-5.426 12.12-12.119 12.12z"/><path d="m339.991 74.445h-6.834c-6.693 0-12.119-5.426-12.119-12.119v-42.707c0-6.693 5.426-12.119 12.119-12.119h6.834c6.693 0 12.119 5.426 12.119 12.119v42.706c0 6.694-5.426 12.12-12.119 12.12z"/><path d="m420.565 74.445h-6.834c-6.693 0-12.119-5.426-12.119-12.119v-42.707c0-6.693 5.426-12.119 12.119-12.119h6.834c6.693 0 12.119 5.426 12.119 12.119v42.706c0 6.694-5.426 12.12-12.119 12.12z"/></g><path d="m463.729 35.87h-31.045v26.456c0 6.693-5.426 12.119-12.12 12.119h-6.834c-6.693 0-12.119-5.426-12.119-12.119v-26.456h-49.501v26.456c0 6.693-5.426 12.119-12.119 12.119h-6.834c-6.693 0-12.119-5.426-12.119-12.119v-26.456h-49.502v26.456c0 6.693-5.426 12.119-12.119 12.119h-6.834c-6.693 0-12.119-5.426-12.119-12.119v-26.456h-49.501v26.456c0 6.693-5.426 12.119-12.119 12.119h-6.834c-6.693 0-12.119-5.426-12.119-12.119v-26.456h-49.501v26.456c0 6.693-5.426 12.119-12.119 12.119h-6.834c-6.693 0-12.119-5.426-12.119-12.119v-26.456h-31.047c-6.718 0-12.164 5.446-12.164 12.164v58.895h439.785v-58.895c.001-6.718-5.445-12.164-12.163-12.164z" fill="#61a2f9"/><path d="m475.893 106.929h-439.786v385.409c0 6.717 5.445 12.162 12.162 12.162h415.459c6.718 0 12.165-5.446 12.165-12.165z" fill="#f6f9f9"/><path d="m475.893 106.929h-40v284.847c0 51.21-41.514 92.724-92.724 92.724h-307.062v7.838c0 6.717 5.445 12.162 12.162 12.162h415.458c6.719 0 12.165-5.446 12.165-12.165v-385.406z" fill="#e7ecf1"/><path d="m463.729 35.87h-27.836v71.059h40v-58.895c0-6.718-5.446-12.164-12.164-12.164z" fill="#5490f9"/><path d="m401.612 257.24c0-41.968-34.022-75.989-75.989-75.989-29.238 0-54.618 16.512-67.326 40.72-.978 1.863-3.615 1.863-4.593 0-12.707-24.208-38.088-40.72-67.326-40.72-41.968 0-75.989 34.022-75.989 75.989 0 82.902 129.653 163.714 144.275 172.564.823.498 1.85.498 2.674 0 14.621-8.85 144.274-89.662 144.274-172.564z" fill="#da4a54"/><path d="m36.107 401.445c-4.143 0-7.5 3.358-7.5 7.5v83.393c0 10.842 8.82 19.662 19.662 19.662h415.458c10.844 0 19.665-8.821 19.665-19.665v-444.301c0-10.843-8.821-19.664-19.664-19.664h-23.544v-8.75c0-10.818-8.802-19.62-19.62-19.62h-6.833c-10.818 0-19.62 8.801-19.62 19.619v8.75h-34.501v-8.75c0-10.818-8.8-19.619-19.619-19.619h-6.834c-10.818 0-19.619 8.801-19.619 19.619v8.75h-34.502v-8.75c0-10.818-8.801-19.62-19.619-19.62h-6.834c-10.818 0-19.619 8.801-19.619 19.619v8.75h-34.502v-8.75c0-10.818-8.801-19.62-19.619-19.62h-6.834c-10.819.002-19.619 8.803-19.619 19.621v8.75h-34.501v-8.75c0-10.818-8.802-19.62-19.62-19.62h-6.833c-10.818 0-19.62 8.801-19.62 19.619v8.75h-23.545c-10.843 0-19.664 8.821-19.664 19.664v325.911c0 4.142 3.357 7.5 7.5 7.5s7.5-3.358 7.5-7.5v-259.514h15.346c4.143 0 7.5-3.358 7.5-7.5s-3.357-7.5-7.5-7.5h-15.346v-51.395c0-2.572 2.093-4.664 4.664-4.664h23.544v18.956c0 10.818 8.802 19.619 19.62 19.619h6.833c10.818 0 19.62-8.801 19.62-19.619v-18.956h34.501v18.956c0 10.818 8.801 19.619 19.619 19.619h6.834c10.818 0 19.619-8.801 19.619-19.619v-18.956h34.502v18.956c0 10.818 8.801 19.619 19.619 19.619h6.834c10.818 0 19.619-8.801 19.619-19.619v-18.956h34.502v18.956c0 10.818 8.801 19.619 19.619 19.619h6.834c10.818 0 19.619-8.801 19.619-19.619v-18.956h34.501v18.956c0 10.818 8.802 19.619 19.62 19.619h6.833c10.818 0 19.62-8.801 19.62-19.619v-18.956h23.544c2.571 0 4.664 2.092 4.664 4.664v51.396h-374.438c-4.143 0-7.5 3.358-7.5 7.5s3.357 7.5 7.5 7.5h374.439v377.906c0 2.572-2.093 4.665-4.665 4.665h-415.457c-2.57 0-4.662-2.091-4.662-4.662v-83.393c-.001-4.143-3.358-7.501-7.501-7.501zm66.782-339.119c0 2.547-2.072 4.619-4.62 4.619h-6.833c-2.548 0-4.62-2.072-4.62-4.619v-42.707c0-2.547 2.072-4.619 4.62-4.619h6.833c2.548 0 4.62 2.072 4.62 4.62zm80.573 0c0 2.547-2.072 4.619-4.619 4.619h-6.834c-2.547 0-4.619-2.072-4.619-4.619v-42.707c0-2.547 2.072-4.619 4.619-4.619h6.834c2.547 0 4.619 2.072 4.619 4.62zm80.574 0c0 2.547-2.072 4.619-4.619 4.619h-6.834c-2.547 0-4.619-2.072-4.619-4.619v-42.707c0-2.547 2.072-4.619 4.619-4.619h6.834c2.547 0 4.619 2.072 4.619 4.62zm80.574 0c0 2.547-2.072 4.619-4.619 4.619h-6.834c-2.547 0-4.619-2.072-4.619-4.619v-42.707c0-2.547 2.072-4.619 4.619-4.619h6.834c2.547 0 4.619 2.072 4.619 4.62zm80.575 0c0 2.547-2.072 4.619-4.62 4.619h-6.833c-2.548 0-4.62-2.072-4.62-4.619v-42.707c0-2.547 2.072-4.619 4.62-4.619h6.833c2.548 0 4.62 2.072 4.62 4.62z"/><path d="m379.337 320.957c3.541 2.153 8.153 1.031 10.307-2.508 12.918-21.228 19.468-41.821 19.468-61.208 0-46.036-37.453-83.489-83.488-83.489-28.274 0-54.241 14.13-69.623 37.385-15.382-23.255-41.349-37.385-69.623-37.385-46.035 0-83.488 37.453-83.488 83.489 0 36.945 23.235 77.169 69.062 119.557 34.859 32.244 71.781 55.158 78.831 59.424 3.218 1.947 7.219 1.948 10.439-.001 10.822-6.55 66.83-41.588 106.714-88.194 2.693-3.147 2.325-7.882-.822-10.575-3.147-2.695-7.882-2.325-10.574.822-35.925 41.98-85.702 74.369-100.536 83.554-53.584-33.244-138.113-101.376-138.113-164.587 0-37.765 30.724-68.489 68.488-68.489 25.548 0 48.801 14.065 60.687 36.707 1.752 3.337 5.177 5.411 8.937 5.411s7.185-2.073 8.938-5.412c11.885-22.641 35.138-36.706 60.686-36.706 37.765 0 68.488 30.724 68.488 68.489 0 16.597-5.814 34.567-17.282 53.411-2.157 3.537-1.034 8.151 2.504 10.305z"/></g></svg>